<?xml version="1.0" standalone="no"?>
<!DOCTYPE svg PUBLIC "-//W3C//DTD SVG 20010904//EN"
 "http://www.w3.org/TR/2001/REC-SVG-20010904/DTD/svg10.dtd">
<svg version="1.0" xmlns="http://www.w3.org/2000/svg"
 width="340.000000pt" height="340.000000pt" viewBox="0 0 340.000000 340.000000"
 preserveAspectRatio="xMidYMid meet">
<metadata>
Created by potrace 1.14, written by Peter Selinger 2001-2017
</metadata>
<g transform="translate(0.000000,340.000000) scale(0.100000,-0.100000)"
fill="#000000" stroke="none">
<path d="M121 2163 c62 -113 102 -176 221 -343 117 -166 138 -207 133 -266 -9
-112 -85 -269 -184 -376 -13 -16 -21 -28 -17 -28 11 0 136 84 167 112 14 12
42 37 61 54 42 37 109 125 136 179 41 81 45 171 12 239 -19 41 -102 133 -156
174 -186 140 -307 239 -392 319 -27 26 -23 11 19 -64z"/>
<path d="M513 1976 c26 -23 35 -39 31 -50 -5 -12 9 -32 44 -67 28 -28 65 -74
82 -102 l31 -52 -2 70 c-3 105 -1 113 26 131 21 14 31 15 50 6 32 -15 33 1 1
33 -30 30 -84 44 -166 44 -36 0 -78 4 -93 10 -44 17 -45 13 -4 -23z"/>
<path d="M0 1947 c0 -28 74 -117 156 -187 57 -49 208 -138 263 -155 24 -7 24
-7 -8 50 -18 32 -55 88 -83 126 -46 63 -54 70 -106 85 -45 13 -140 54 -214 92
-5 2 -8 -3 -8 -11z"/>
<path d="M2822 1839 c-133 -67 -131 -267 2 -336 34 -17 109 -20 147 -5 23 9
26 16 26 60 l1 50 -34 -20 c-66 -39 -131 -6 -141 71 -13 94 88 148 158 85 14
-13 16 -9 15 35 -1 28 -6 55 -12 61 -7 7 -36 14 -65 16 -42 4 -63 0 -97 -17z"/>
<path d="M974 1673 l1 -178 48 -1 47 -1 0 80 0 81 59 -81 59 -81 56 0 c31 1
56 4 56 7 0 4 -29 44 -65 89 -36 45 -65 85 -65 89 0 3 27 41 60 84 33 42 60
80 60 83 0 3 -24 6 -54 6 l-55 0 -53 -77 -53 -77 -3 77 -3 77 -47 0 -48 0 0
-177z"/>
<path d="M1340 1670 l0 -179 49 1 48 2 1 178 1 178 -49 0 -50 0 0 -180z"/>
<path d="M1518 1843 c-2 -5 -4 -84 -3 -178 l0 -170 45 0 45 0 2 55 c0 30 2 60
2 65 1 6 19 -19 40 -55 38 -63 40 -65 85 -67 25 -1 48 2 51 7 3 5 -13 37 -37
71 -40 56 -42 61 -24 71 39 22 56 48 56 88 0 92 -39 120 -168 120 -50 0 -92
-3 -94 -7z m160 -91 c10 -13 8 -47 -4 -60 -1 -2 -17 -5 -35 -5 -35 -2 -33 -6
-30 68 1 22 4 25 29 19 15 -4 33 -13 40 -22z"/>
<path d="M1909 1823 c-6 -15 -35 -96 -63 -180 l-52 -152 45 3 c25 2 49 4 53 5
3 0 9 14 13 29 5 27 7 28 73 28 65 -1 67 -1 78 -31 10 -27 16 -30 58 -33 46
-2 46 -2 40 25 -4 16 -31 96 -59 178 l-52 150 -62 3 c-59 3 -62 2 -72 -25z
m97 -123 c12 -39 19 -70 15 -71 -32 -5 -86 -2 -84 4 15 67 38 145 42 141 2 -2
14 -36 27 -74z"/>
<path d="M2150 1807 c0 -42 1 -44 28 -42 52 3 52 2 52 -140 l0 -132 48 1 47 1
0 133 c0 72 2 132 5 133 3 1 19 2 35 4 17 1 32 3 35 4 3 0 6 19 6 41 l0 40
-128 0 -128 0 0 -43z"/>
<path d="M2455 1673 l0 -178 110 0 110 0 -1 35 c-1 19 -2 38 -3 41 -1 3 -28 4
-61 3 l-60 -3 0 30 c0 31 0 31 76 32 40 1 41 1 42 39 l2 38 -43 1 c-23 1 -50
1 -59 0 -14 -2 -18 5 -18 28 0 17 3 31 8 32 4 0 32 1 62 2 57 2 57 2 51 67 -1
6 -44 10 -109 10 l-107 0 0 -177z"/>
<path d="M3053 1673 l2 -178 48 -1 47 -1 0 73 0 74 66 0 66 0 -2 -37 c-1 -21
-2 -54 -1 -74 1 -36 1 -36 46 -36 32 0 46 4 49 16 3 9 5 89 5 179 l-1 162 -49
0 -49 0 -1 -42 c-1 -24 0 -55 1 -70 1 -26 1 -26 -64 -26 l-66 1 0 68 0 69 -50
0 -49 0 2 -177z"/>
</g>
</svg>
